<?xml version="1.0" encoding="utf-8"?>
<!-- Generator: Adobe Illustrator 24.1.1, SVG Export Plug-In . SVG Version: 6.00 Build 0)  -->
<svg version="1.1" id="Layer_1" xmlns="http://www.w3.org/2000/svg" xmlns:xlink="http://www.w3.org/1999/xlink" x="0px" y="0px"
	 viewBox="0 0 541.65 860.22" style="enable-background:new 0 0 541.65 860.22;" xml:space="preserve">
<style type="text/css">
	.st0{fill:#121212;}
	.st1{fill:#FAFAFA;}
</style>
<g>
	<polygon class="st1" points="541.65,729 517.69,647.52 382.18,180.02 353.93,163.17 369.66,136.81 330.15,0.53 330.31,0 330,0 
		211.31,0 211,0 211.15,0.53 0,729 119,729 270.65,205.8 317.83,368.56 303.32,392.88 329.39,408.43 387.81,610 255.65,610 
		220.65,729 422.31,729 422.31,729 541.31,729 541.31,729 	"/>
	<g>
		<g>
			<path class="st1" d="M147.98,846.93h23.26v11.63c-6.32,0.96-12.95,1.44-19.9,1.44h-5.16c-16.71,0-25.06-7.67-25.06-23.02v-19.9
				c0-15.35,8.35-23.02,25.06-23.02h4.92c7.27,0,13.91,0.52,19.9,1.56v11.51h-23.02c-7.03,0-10.55,3.52-10.55,10.55v18.82
				c0,3.68,0.84,6.34,2.52,7.97C141.63,846.11,144.31,846.93,147.98,846.93z"/>
			<path class="st1" d="M183.47,836.98v-19.9c0-15.35,8.35-23.02,25.06-23.02h10.31c16.79,0,25.18,7.67,25.18,23.02v19.9
				c0,15.35-8.39,23.02-25.18,23.02h-10.31C191.82,860,183.47,852.33,183.47,836.98z M227.71,836.5v-18.82
				c0-3.6-0.84-6.25-2.52-7.97c-1.68-1.72-4.36-2.58-8.03-2.58h-6.83c-3.68,0-6.35,0.86-8.03,2.58c-1.68,1.72-2.52,4.38-2.52,7.97
				v18.82c0,3.6,0.82,6.24,2.46,7.91c1.64,1.68,4.33,2.52,8.09,2.52h6.83c3.68,0,6.35-0.84,8.03-2.52
				C226.88,842.74,227.71,840.1,227.71,836.5z"/>
			<path class="st1" d="M314.4,772.48v84.41c-8.71,2.08-18.46,3.12-29.26,3.12h-4.56c-15.91,0-23.86-7.43-23.86-22.3v-21.22
				c0-7.27,2-12.83,6-16.67c4-3.84,9.95-5.75,17.86-5.75h4.44c3.52,0,7.87,0.36,13.07,1.08v-22.66H314.4z M273.03,818.04v18.1
				c0,6.88,3.48,10.31,10.43,10.31h3.48c3.84,0,7.55-0.24,11.15-0.72v-37.17c-3.36-0.56-7.07-0.84-11.15-0.84h-3.48
				C276.51,807.72,273.03,811.16,273.03,818.04z"/>
			<path class="st1" d="M386.34,817.08v15.71h-41.13v4.44c0,3.68,0.84,6.34,2.52,7.97c1.68,1.64,4.36,2.46,8.03,2.46h27.7v10.67
				c-6.71,1.12-14.83,1.68-24.34,1.68h-5.04c-16.79,0-25.18-7.67-25.18-23.02v-19.9c0-15.35,8.39-23.02,25.18-23.02h7.07
				C377.94,794.06,386.34,801.73,386.34,817.08z M345.21,816v5.28h24.82v-4.2c0-7.11-3.32-10.67-9.95-10.67h-5.04
				C348.49,806.41,345.21,809.6,345.21,816z"/>
		</g>
		<g>
			<rect x="410.16" y="845.5" class="st1" width="14.72" height="14.72"/>
		</g>
	</g>
</g>
</svg>
