<?xml version="1.0" encoding="utf-8"?>
<!-- Generator: Adobe Illustrator 24.1.1, SVG Export Plug-In . SVG Version: 6.00 Build 0)  -->
<svg version="1.1" id="Layer_1" xmlns="http://www.w3.org/2000/svg" xmlns:xlink="http://www.w3.org/1999/xlink" x="0px" y="0px"
	 viewBox="0 0 320.04 466.41" style="enable-background:new 0 0 320.04 466.41;" xml:space="preserve">
<style type="text/css">
	.st0{fill:#FFFFFF;}
</style>
<g>
	<path class="st0" d="M0.01,466.41c-0.12-14.58,0.55-28.76,5.49-42.09c13.28-35.81,37.95-57.37,75.44-65.91
		c1.03-0.23,2.07-0.44,3.21-0.67c0.59-0.12,1.21-0.24,1.87-0.38l4-0.82v-4.08c0-1.97,0.02-3.93,0.03-5.88
		c0.04-5.25,0.09-10.69-0.21-16.05c-0.22-4-3.61-7.06-5.61-8.53c-19.68-14.48-34.47-33-43.96-55.04
		c-6.27-14.57-9.68-30.27-10.12-46.66c-0.12-4.22-0.09-8.46-0.06-12.94c0.01-2.12,0.03-4.29,0.03-6.52l-0.24-30.1
		c0-35.16,0.01-62.6,0.02-89.97c0.01-23.47,0.02-46.89,0.02-75.13l69.29,101.56L159.95,0l60.75,107.19L289.83,5.88
		c-0.01,31.81-0.04,110-0.04,164.78l0.08,29.77l0,4.55c0,3.04,0,5.9,0,8.76c0.05,23.47-4.77,43.95-14.71,62.61
		c-9.91,18.59-23.04,33.75-39.01,45.06c-4.58,3.24-6.58,7.24-6.28,12.59c0.23,4.15,0.18,8.45,0.13,12.61
		c-0.02,1.83-0.04,3.65-0.04,5.46v3.79l3.65,1.02c2.32,0.65,4.63,1.24,6.85,1.8c4.65,1.19,9.04,2.31,13.19,3.87
		c40.98,15.42,65.73,51.29,66.2,95.95c0.03,2.65,0.1,5.31,0.18,7.91H0.01z M90.97,377.38c-0.41,0-0.81,0.02-1.19,0.07
		c-21.06,2.48-38.77,12.57-52.65,30c-8.11,10.18-13.09,20.93-15.23,32.87l-1.05,5.88H148.4l0.98-3.74c2.39-9.13-2-14.71-5.51-18.11
		c-7.95-7.71-15.93-15.69-23.64-23.4c-6.52-6.52-13.26-13.26-19.97-19.83C97.97,378.88,94.24,377.38,90.97,377.38z M228.45,377.14
		c-4.65,0-7.59,2.43-9.4,4.27l-1.19,1.2c-13.74,13.91-27.95,28.3-42.24,42.08c-6.53,6.29-6.04,13.02-5.1,17.53l0.83,3.98H301.5
		l-2.84-6.9c-0.92-2.22-1.76-4.47-2.58-6.64c-1.86-4.93-3.61-9.58-6.12-14.08c-13-23.26-32.9-37.14-59.15-41.25
		C229.99,377.2,229.2,377.14,228.45,377.14z M110.03,343.91c0,1.51-0.01,2.96-0.02,4.35c-0.03,3.52-0.05,6.84,0.1,10.16
		c0.12,2.6,1.31,5.34,3.11,7.17c11.51,11.69,22.85,23.09,34.86,35.16l11.7,11.76l3.54-3.55c4.03-4.03,7.99-8.09,11.83-12.01
		c9.22-9.44,17.92-18.35,27.28-26.73c7.92-7.1,7.66-15.02,7.43-22c-0.05-1.41-0.09-2.87-0.08-4.3l0.09-7.05l-6.68,2.25
		c-14.44,4.85-29.01,7.32-43.3,7.32c-14.24,0-28.8-2.44-43.29-7.27l-6.58-2.19V343.91z M50.49,200.41
		c-4.35,48.64,16.23,89.63,56.48,112.45c15.94,9.04,34.13,13.81,52.61,13.81c0,0,0,0,0.01,0c24.78,0,49.2-8.62,68.77-24.28
		c30.46-24.37,44.31-58.66,41.15-101.9l-0.34-4.64H50.89L50.49,200.41z M50.36,172.41h219.11l0.01-101.25l-50.37,73.8L159.99,40.54
		l-59.17,104.42l-50.45-73.9L50.36,172.41z"/>
	<path class="st0" d="M177.18,269.72c0,7.75-0.01,9.18-0.01,16.61c-7.49,0.01-26.63,0.03-34.16,0.04c0.02-7.45,0.04-8.98,0.05-16.68
		C150.26,269.7,169.33,269.71,177.18,269.72z"/>
</g>
</svg>
