<?xml version="1.0" encoding="utf-8"?>
<!-- Generator: Adobe Illustrator 24.1.1, SVG Export Plug-In . SVG Version: 6.00 Build 0)  -->
<svg version="1.1" id="Layer_1" xmlns="http://www.w3.org/2000/svg" xmlns:xlink="http://www.w3.org/1999/xlink" x="0px" y="0px"
	 viewBox="0 0 512 512" style="enable-background:new 0 0 512 512;" xml:space="preserve">
<style type="text/css">
	.st0{fill:#FFFFFF;}
</style>
<path class="st0" d="M271,512c-10,0-20,0-30,0c-6.75-0.81-13.53-1.49-20.26-2.44c-50.48-7.13-95.11-27.29-133.31-61.03
	c-45-39.74-73.14-89.18-83.49-148.48C2.26,290.43,1.29,280.69,0,271c0-10,0-20,0-30c0.31-1.76,0.68-3.52,0.91-5.29
	c1.22-9.24,1.93-18.56,3.67-27.7c9.69-50.99,32.9-95.04,69.38-131.88c38.25-38.62,84.21-62.94,137.91-72.19
	C221.53,2.28,231.29,1.3,241,0c10,0,20,0,30,0c6.75,0.81,13.53,1.49,20.26,2.44c50.48,7.13,95.11,27.29,133.31,61.03
	c44.99,39.74,73.14,89.18,83.5,148.48c1.68,9.62,2.64,19.36,3.94,29.05c0,10,0,20,0,30c-0.31,1.76-0.68,3.52-0.91,5.29
	c-1.22,9.24-1.93,18.56-3.67,27.7c-9.69,50.99-32.9,95.04-69.38,131.88c-38.25,38.62-84.22,62.94-137.91,72.19
	C290.47,509.72,280.71,510.7,271,512z M145.27,240.69c74.4,0,147.47,0,220.74,0c0-1.12,0.04-1.93-0.01-2.74
	c-1.83-30.25-7.59-59.69-17.9-88.24c-1.11-3.07-3.02-2.95-5.39-2.95c-57.81,0.01-115.63,0.03-173.44-0.05
	c-3.13,0-4.81,0.72-5.65,3.98c-4.29,16.56-9.44,32.93-12.98,49.64C147.87,213.44,147.02,226.96,145.27,240.69z M146,271.24
	c0,1.43-0.04,2.26,0.01,3.09c1.87,30.08,7.58,59.36,17.82,87.75c1.2,3.32,3.21,3.16,5.74,3.16c57.65-0.01,115.29-0.04,172.94,0.06
	c3.38,0.01,5.11-0.82,5.96-4.26c4.67-18.86,10.03-37.56,14.12-56.54c2.32-10.77,2.65-21.97,3.91-33.26
	C292.5,271.24,219.44,271.24,146,271.24z M177.61,116.38c53.01,0,104.01,0,155.07,0c-0.11-0.71-0.08-1.07-0.22-1.34
	c-17.86-32.93-41.45-60.65-73.32-80.9c-2.63-1.67-4.34-1.15-6.68,0.32c-19.39,12.2-36.09,27.44-49.93,45.58
	C193.9,91.35,186.37,103.51,177.61,116.38z M333.12,395.62c-51.73,0-102.73,0-153.79,0c0.1,0.71,0.06,1.07,0.21,1.34
	c17.86,32.93,41.44,60.65,73.32,80.9c2.63,1.67,4.34,1.16,6.68-0.3c14.64-9.17,27.67-20.28,39.33-32.96
	C312.32,429.96,323.64,413.79,333.12,395.62z M29.81,240.74c29.39,0,57.44,0,86.01,0c1.44-32.04,7.12-63.14,17.35-93.74
	c-2.08-0.09-3.56-0.21-5.03-0.21c-21.81-0.01-43.62,0.08-65.43-0.1c-3.57-0.03-5.21,1.28-6.78,4.3
	c-8.56,16.46-15.36,33.6-19.43,51.67C33.7,215.06,32.05,227.72,29.81,240.74z M481.15,240.79c0-1.19,0.04-1.85-0.01-2.51
	c-2.3-31.48-11.09-61.07-26.13-88.77c-0.8-1.48-3.64-2.6-5.54-2.62c-21.98-0.18-43.95-0.12-65.93-0.1c-1.41,0-2.81,0.2-4.71,0.35
	c10.36,30.69,15.84,61.83,17.4,93.65C424.84,240.79,452.77,240.79,481.15,240.79z M133.33,365.22
	c-10.61-31.09-15.96-62.25-17.59-93.83c-28.73,0-56.77,0-84.81,0c-0.05,0.89-0.13,1.39-0.09,1.88c2.22,31.66,11.07,61.4,26.16,89.28
	c0.76,1.4,3.34,2.53,5.09,2.56c13.15,0.21,26.3,0.12,39.46,0.12C111.84,365.22,122.14,365.22,133.33,365.22z M482.13,271.27
	c-29.35,0-57.39,0-85.92,0c-1.5,32.04-7.13,63.15-17.35,93.64c1.73,0.14,2.87,0.3,4.02,0.3c22.31,0.02,44.62-0.06,66.93,0.09
	c3.2,0.02,4.67-1.24,6.05-3.87c8.75-16.73,15.65-34.2,19.79-52.6C478.4,296.6,479.96,284.1,482.13,271.27z M199.51,38.21
	c-30.94,0.99-111.6,53.98-119.92,78.56c20.23,0,40.38-0.13,60.51,0.11c4.02,0.05,5.8-1.39,7.44-4.84
	c11.54-24.21,26.29-46.29,44.56-65.97C194.44,43.55,196.82,41.07,199.51,38.21z M433.58,116.5c-32.1-39.68-71.74-65.87-121.33-79.25
	c1.16,1.73,1.51,2.46,2.05,3.01c21.34,21.49,38,46.23,51.2,73.42c0.74,1.53,3.49,2.95,5.32,2.97c19.49,0.21,38.99,0.14,58.48,0.12
	C430.39,116.76,431.49,116.63,433.58,116.5z M79.17,395.23c15.57,29.43,95.34,81.3,119.83,78.14c-0.46-0.59-0.81-1.14-1.26-1.59
	c-21.23-21.37-37.95-45.88-50.78-73.06c-1.41-3-3.29-3.56-6.23-3.54c-17.83,0.1-35.66,0.05-53.49,0.05
	C84.65,395.23,82.05,395.23,79.17,395.23z M433.8,395.23c-21.63,0-41.77,0.13-61.9-0.11c-4.02-0.05-5.8,1.38-7.44,4.84
	c-11.54,24.21-26.29,46.29-44.56,65.97c-2.34,2.52-4.71,5-7.07,7.5C361.84,461.37,401.47,435.18,433.8,395.23z"/>
</svg>
