<?xml version="1.0" encoding="utf-8"?>
<!-- Generator: Adobe Illustrator 24.1.1, SVG Export Plug-In . SVG Version: 6.00 Build 0)  -->
<svg version="1.1" id="Layer_1" xmlns="http://www.w3.org/2000/svg" xmlns:xlink="http://www.w3.org/1999/xlink" x="0px" y="0px"
	 viewBox="0 0 372.1 372.1" style="enable-background:new 0 0 372.1 372.1;" xml:space="preserve">
<path d="M186.1,326.2c-31.3,0-62.6-0.1-94,0.1c-9.4,0.1-18.6,0.1-27.6-3.3c-21.1-8.1-35-28.1-34.9-50.7c0.1-24.2,0.3-48.4,0.3-72.6
	c0.1-25.2,0.2-50.4-0.1-75.6c-0.1-8.5-0.3-16.9,2.5-25.1C40.6,75.2,63.9,60.2,89,62.5c1.4,0.1,2.7,0.1,4.1,0.1
	c61.8,0,123.5,0.1,185.3-0.1c9.8,0,19.4-0.3,28.7,3.2c21,8.1,34.9,28.3,34.7,50.8c-0.1,14.7-0.3,29.4-0.3,44.2
	c0,34.4,0.1,68.9-0.1,103.3c0,7.2,0.2,14.6-1.5,21.5c-5.7,24.4-27.4,40.9-52.4,40.9c-33.8,0-67.6,0-101.4,0
	C186.1,326.4,186.1,326.3,186.1,326.2z M185.7,86.6c-30.9,0-61.9,0-92.8,0c-3.2,0-6.5,0-9.7,0.2c-16,1.1-25.5,9-28.2,23.9
	c-0.8,4.3-1,8.7-1,13c-0.1,47-0.1,94.1,0,141.1c0,4,0.3,8,0.8,11.9c1.8,13.4,9.3,21.5,22.5,24c5,1,10.2,1.3,15.2,1.3
	c62.1,0.1,124.3,0.1,186.4,0c3.7,0,7.5-0.2,11.2-0.6c14.8-1.4,23.7-9.4,26.3-23.7c0.8-4.1,1-8.4,1-12.7c0.1-47.3,0.1-94.6,0-141.9
	c0-3.9-0.3-7.7-0.8-11.6c-1.9-13.9-10.1-22.2-24-24.3c-4.4-0.7-8.9-0.9-13.4-0.9C248.1,86.6,216.9,86.6,185.7,86.6z"/>
<path d="M185.8,210.5c-6.2,0.1-11.8-1.8-16.8-5.4c-25.8-18.8-51.6-37.5-77.4-56.3c-6-4.4-7.4-11.5-3.5-17.1c4-5.7,11.3-6.8,17.5-2.3
	c24.8,18,49.6,36,74.5,54.1c5.7,4.2,5.7,4.2,11.3,0.1c24.6-17.9,49.2-35.8,73.8-53.7c3.3-2.4,6.7-3.9,10.8-3c4.8,1.1,8.1,4,9.2,8.8
	c1.2,5.2-0.4,9.6-4.8,12.8c-11,8-22,16-33,24c-14.8,10.8-29.7,21.6-44.5,32.3C197.7,208.4,192.1,210.6,185.8,210.5z"/>
</svg>
