<?xml version="1.0" encoding="utf-8"?>
<!-- Generator: Adobe Illustrator 24.1.1, SVG Export Plug-In . SVG Version: 6.00 Build 0)  -->
<svg version="1.1" id="Layer_1" xmlns="http://www.w3.org/2000/svg" xmlns:xlink="http://www.w3.org/1999/xlink" x="0px" y="0px"
	 viewBox="0 0 372.1 372.1" style="enable-background:new 0 0 372.1 372.1;" xml:space="preserve">
<g>
	<g>
		<path d="M71.7,44.5l0.2,0c10.1,0.1,18.9,7.2,20.8,17c1.4,6.7-0.3,13.5-4.6,18.8c-4.1,5-10.1,7.9-16.4,7.9c-1,0-2-0.1-3-0.2
			c-9.9-1.3-17.1-8.4-18.8-18.5c-0.1-0.5-0.2-0.9-0.3-1.3V64l0.6-2.4C52.7,51.3,61.3,44.5,71.7,44.5 M71.7,24.5
			c-19.6,0-36.4,13.3-41,32.5c-0.4,1.6-0.7,3.1-1.1,4.7c0,3.3,0,6.5,0,9.8c0.2,0.4,0.5,0.9,0.6,1.3c3.2,18.5,17.3,32.5,35.9,35
			c1.9,0.2,3.7,0.4,5.6,0.4c26.2,0,46-24.5,40.7-50.6c-3.9-19.2-21-32.9-40.3-33C72,24.5,71.9,24.5,71.7,24.5L71.7,24.5z"/>
	</g>
	<g>
		<path d="M266,133.2c9.1,0,15.3,0.8,20.7,2.7c19.2,6.8,30.2,19.3,34.9,39.3c0.9,3.8,1.3,8.3,1.4,13.4c0.1,34.6,0.1,69.8,0.1,103.8
			c0,6.8,0,13.5,0,20.3c-5.3,0-10.5,0-15.8,0c-5.8,0-11.6,0-17.4,0c0-10.4,0-20.8,0-31.1c0-22.6,0-46,0-69c0-4.1-0.3-8.5-1-13.8
			c-1.2-9.3-6.6-26.2-28.9-35.4c-6.2-2.6-12.7-3.9-19.2-3.9c-15.7,0-30.1,7.7-39.6,21c-6.1,8.5-9.2,18.7-9.2,30.2c0,3.3,0,6.7,0,9.9
			c0,1.3,0,2.7,0,4l0,28.3c0,19.9,0,39.8,0,59.8c-6.4,0-12.9,0-19.3,0c-6.4,0-12.7,0-19.1,0c0-58.1,0-116.1,0-174.2
			c5.4,0,10.8,0,16.2,0c5.7,0,11.4,0,17.2,0c1.1,6.1,4.9,11.4,10.5,14.3c2.9,1.5,6,2.2,9.1,2.2c4.1,0,8.2-1.3,11.6-3.7
			c2.1-1.5,4.1-3,6-4.4c3.8-2.8,7.3-5.4,10.7-7.5c6.4-3.8,13.9-5.8,23-6.1C260.4,133.3,263.2,133.2,266,133.2 M266,113.2
			c-2.9,0-5.7,0.1-8.6,0.2c-11.6,0.4-22.7,2.9-32.7,8.9c-6.2,3.7-11.9,8.4-18.1,12.8c0-1.2,0-2.7,0-4.2c0-7.9-4.4-12.3-12.2-12.3
			c-8.2,0-16.4,0-24.6,0c-8,0-16,0-24,0c-8.1,0-12.1,4.1-12.1,12.2c0,63.3,0,126.7,0,190c0,7.9,3.9,11.9,11.8,11.9
			c9.1,0,18.2,0,27.3,0c9.2,0,18.3,0,27.5,0c7.8,0,11.8-4.1,11.8-11.9c0-32,0-64.1,0-96.1c0-4.6,0-9.2,0-13.8
			c0-6.8,1.6-13.2,5.5-18.8c5.8-8.2,14.2-12.6,23.3-12.6c3.8,0,7.7,0.8,11.6,2.4c8.7,3.6,15.3,9.4,16.6,19.5
			c0.5,3.7,0.9,7.5,0.9,11.3c0.1,35.9,0,71.8,0,107.7c0,7.9,4.5,12.4,12.3,12.4c8.3,0,16.7,0,25,0c7.9,0,15.7,0,23.6,0
			c7.6,0,12.1-4.6,12.1-12.2c0-44,0.1-87.9-0.1-131.9c0-6-0.5-12.1-1.9-17.9c-6.1-26.4-22-44.5-47.7-53.6
			C284.5,113.9,275.3,113.2,266,113.2L266,113.2z"/>
	</g>
	<g>
		<path d="M54.8,138.5c3.7,0.1,7.8,0.1,12.5,0.1c3.7,0,7.5,0,11.1-0.1c3.1,0,6.4,0,9.6-0.1c0,20.6,0,41.2,0,61.8l0,25.7l0,24.6
			c0,20.7,0,41.4,0,62.1c-5.4,0-10.7,0-16.1,0c-5.7,0-11.4,0-17,0c0-19.1,0-38.1,0-57.2C54.9,217.2,54.9,177.6,54.8,138.5
			 M51.6,118.4c-9.5,0-16.8,6.4-16.8,17.4c0.1,59.8,0,119.5,0.1,179.3c0,11.1,6.6,17.6,17.8,17.6c6.4,0,12.8,0,19.3,0
			c6.1,0,12.2,0,18.4,0c11.2,0,17.7-6.5,17.7-17.6c0-29.7,0-59.4,0-89c0-30.1,0-60.2,0-90.3c0-10.5-6.6-17.2-17.2-17.2
			c-0.5,0-1,0-1.5,0c-7.3,0-14.7,0.1-22,0.1c-5,0-10,0-15-0.2C52.1,118.4,51.8,118.4,51.6,118.4L51.6,118.4z"/>
	</g>
</g>
</svg>
