<?xml version="1.0" encoding="utf-8"?>
<!-- Generator: Adobe Illustrator 24.1.1, SVG Export Plug-In . SVG Version: 6.00 Build 0)  -->
<svg version="1.1" id="Layer_1" xmlns="http://www.w3.org/2000/svg" xmlns:xlink="http://www.w3.org/1999/xlink" x="0px" y="0px"
	 viewBox="0 0 372.1 372.1" style="enable-background:new 0 0 372.1 372.1;" xml:space="preserve">
<g>
	<path d="M107.5,30.3v20c3.2,0,7.3,0.8,11.4,7.2c8.8,13.7,17.5,28.3,26.3,44.5c5.8,10.5,2.7,23.4-7.2,30.7
		c-3.9,2.9-8.1,5.7-12.6,8.7c-2.2,1.4-4.4,2.9-6.7,4.5l-14.5,9.9l7.9,15.7c19.7,39.1,49.6,69,88.7,88.8l15.8,8l9.9-14.7l3.6-5.4
		c2.7-4,5.3-7.9,7.9-11.8c4.9-7.4,11-11.1,19.5-11.9c0.7-0.1,1.4-0.1,2.1-0.1c4.3,0,8.7,1.3,13.3,4.1l7.5,4.5
		c10.9,6.5,22.1,13.2,33.1,19.8c6.8,4.1,9.6,10.7,7.7,18.5c-3,12.9-9.5,24.4-18.9,33.2c-9.4,8.8-21.2,14.6-34.2,16.8
		c-2.9,0.5-5.9,0.7-9,0.7c-7.6,0-15.8-1.5-25.2-4.6c-44.4-14.9-81.8-37.4-111.4-66.7c-29.5-29.4-52.2-66.7-67.4-111
		c-6.1-17.8-6.6-32.4-1.6-45.8c9.1-24.2,25.6-38.3,50.4-43c1.2-0.2,2.4-0.3,3.5-0.3L107.5,30.3 M107.5,30.3c-2.3,0-4.7,0.2-7.2,0.7
		c-32.1,6.1-54,25.1-65.4,55.6c-7.4,19.8-5.3,39.7,1.4,59.3c32.6,94.8,96.3,158.3,191.4,190.2c10.3,3.5,20.8,5.7,31.5,5.7
		c4.1,0,8.2-0.3,12.3-1c34.5-5.8,61.3-31.1,69.3-65.2c3.8-16.2-2.6-31.5-16.9-40.2c-13.5-8.2-27.2-16.3-40.8-24.4
		c-7.3-4.4-15.1-6.9-23.5-6.9c-1.3,0-2.6,0.1-4,0.2c-14.7,1.4-26.1,8.4-34.3,20.7c-3.8,5.7-7.6,11.4-11.5,17.2
		c-35.5-17.9-61.9-44.4-79.8-79.9c6.9-4.7,13.5-8.9,19.9-13.5c17.8-13.1,23.6-37.1,12.9-56.5c-8.5-15.5-17.5-30.8-27-45.7
		C129,36.1,119.2,30.3,107.5,30.3L107.5,30.3z"/>
</g>
</svg>
