<?xml version="1.0" encoding="utf-8"?>
<!-- Generator: Adobe Illustrator 24.1.1, SVG Export Plug-In . SVG Version: 6.00 Build 0)  -->
<svg version="1.1" id="Layer_1" xmlns="http://www.w3.org/2000/svg" xmlns:xlink="http://www.w3.org/1999/xlink" x="0px" y="0px"
	 viewBox="0 0 382.11 383.23" style="enable-background:new 0 0 382.11 383.23;" xml:space="preserve">
<style type="text/css">
	.st0{fill:#FFFFFF;}
</style>
<g>
	<path class="st0" d="M97.86,364.22c5.43,5.33,10.84,5.3,16.32-0.07c3.66-3.58,7.25-7.21,10.86-10.84
		c5.86-5.91,5.73-10.64-0.14-16.55c-13.44-13.53-26.76-27.18-40.2-40.72c-11.78-11.86-23.63-23.65-35.49-35.43
		c-1.76-1.75-3.63-3.41-5.58-4.94c-2.98-2.34-8.3-2.13-11.45,0.8c-5.02,4.67-9.93,9.48-14.57,14.53c-3.82,4.16-3.3,9.66,1.01,14.09
		L97.86,364.22z M6.8,294.45c-9.03-9.6-9.08-24.29-0.11-33.96c4.75-5.12,9.67-10.1,14.83-14.8c7.22-6.57,15.71-8.14,25.09-5.42
		c1.21,0.35,3.18,0.42,3.93-0.29c7.46-7.17,14.75-14.54,22.07-21.85c0.51-0.51,0.97-1.08,1.44-1.61
		c-14.98-15.59-9.13-37.45,8.69-44.79c-9.6-16.5-1.66-35.24,16.4-40.36c-1.58-7.1-0.96-14.02,2.86-20.43
		c3.84-6.43,9.58-10.33,16.22-12.14c0.21-4.75-0.24-9.33,0.72-13.58c3.22-14.21,17.03-22.39,31.53-19.32
		c1.42,0.3,3.38-0.1,4.56-0.93c6.56-4.59,13.76-3.93,20.92-2.63c16.18,2.92,32.31,6.15,48.49,9.11c3.04,0.56,6.24,0.22,9.29,0.73
		c15.02,2.51,24.21,15.43,21.82,30.43c-0.12,0.74-0.16,1.48-0.28,2.57c7.02,1.97,12.84,5.77,16.69,12.15
		c3.87,6.41,4.55,13.32,2.92,20.47c15.96,5.35,22.56,17.15,19.97,33.22c9.93,2.82,16.85,9,19.47,19.15
		c2.6,10.03-0.51,18.67-7.92,26.22c6.23,6.23,12.3,12.28,18.36,18.34c0.62,0.62,1.33,1.17,1.84,1.86c2.71,3.68,5.52,4.56,10.33,2.9
		c8.45-2.91,16.61-0.8,23.28,5.27c5.25,4.78,10.31,9.81,15.11,15.04c9.09,9.91,9.1,24.65-0.38,34.21
		c-27.04,27.3-54.22,54.45-81.54,81.47c-9.88,9.77-25.03,9.44-35.07-0.25c-4.49-4.33-8.94-8.71-13.24-13.23
		c-7.61-8-9.53-17.29-5.44-27.58c0.81-2.04,0.35-3.1-1.04-4.47c-9.05-8.94-18.01-17.98-27.08-26.9c-0.87-0.86-2.27-1.63-3.45-1.68
		c-8.09-0.33-16.19-0.49-24.29-0.65c-2.74-0.05-5.59-0.41-8.2,0.2c-2.77,0.65-5.85,1.71-7.85,3.59
		c-8.52,8.05-16.65,16.51-25.02,24.73c-1.55,1.52-1.86,2.63-0.85,4.74c4.69,9.82,2.9,20.45-4.64,28.36
		c-4.39,4.6-8.63,9.46-13.59,13.37c-3.99,3.14-8.96,5.04-13.5,7.49c-2.74,0-5.49,0-8.23,0c-7.9-1.8-13.66-6.78-18.98-12.54
		L6.8,294.45z M61.82,250.25c23.23,23.34,46.14,46.38,69.24,69.59c8.58-8.61,17.44-17.37,26.15-26.29c4.69-4.8,10.3-7.5,16.92-7.65
		c6.97-0.16,13.98-0.23,20.91,0.39c12.17,1.08,23.03-0.46,31.14-11.02c3.07-4,8.06-3.85,11.18-0.72c3.2,3.2,2.88,7.39-0.58,11.3
		c-3.22,3.64-6.22,7.48-8.98,10.82c6.95,7.04,15.04,15.23,22.9,23.18c22.79-22.87,45.73-45.9,68.07-68.32
		c-7.67-7.74-15.62-15.76-23.64-23.86c-1.54,1.46-3.23,3.31-5.17,4.86c-3.59,2.86-8.32,2.12-10.84-1.5
		c-2.21-3.18-1.79-6.93,1.36-10.14c5.5-5.61,11.21-11.02,16.6-16.73c4.22-4.48,4-11.07-0.12-15.21c-4.2-4.22-10.53-4.48-15.22-0.47
		c-2.17,1.86-4.1,4.01-6.16,6c-3.93,3.8-8.31,4.12-11.55,0.86c-3.15-3.16-2.79-7.74,0.97-11.56c4.11-4.18,8.39-8.2,12.36-12.51
		c4.13-4.5,3.92-11.09-0.15-15.23c-4.26-4.33-10.76-4.48-15.49-0.23c-2.32,2.08-4.44,4.38-6.67,6.56c-4,3.92-8.63,4.29-11.83,0.97
		c-3.13-3.25-2.74-7.64,1.1-11.54c4.46-4.53,9.11-8.89,13.4-13.58c4.26-4.66,3.85-11.32-0.57-15.45
		c-4.29-4.01-10.71-3.97-15.24,0.22c-2.38,2.2-4.57,4.6-6.91,6.84c-3.69,3.54-8.18,3.82-11.31,0.76c-3.24-3.17-2.97-7.76,0.78-11.56
		c4.29-4.35,8.65-8.63,12.97-12.96c2.62-2.62,3.92-5.78,3.4-9.49c-0.61-4.29-2.94-7.39-7.03-8.93c-4.4-1.66-8.43-0.68-11.74,2.54
		c-6.43,6.26-12.68,12.72-19.13,18.97c-1.75,1.7-2.16,2.9-1.03,5.35c6.51,14.15-0.75,30.71-15.42,35.51
		c-2.57,0.84-5.32,1.14-8.16,1.73c-0.14,0.6-0.36,1.3-0.46,2.02c-2.08,13.94-9.82,21.75-23.8,23.71c-2.23,0.31-2.45,1.42-2.65,3.19
		c-1.37,12.38-10.43,21.5-22.8,23.08c-1.07,0.14-2.13,0.39-2.93,0.54c-0.6,2.91-0.89,5.53-1.68,8
		c-4.76,14.85-21.37,22.03-35.8,15.67c-1.12-0.49-3.17-0.77-3.82-0.15C76.59,235.35,68.98,243.07,61.82,250.25z M367.79,276.69
		c-1.6-2.78-2.62-5.51-4.43-7.53c-3.82-4.26-8-8.21-12.12-12.19c-4.95-4.8-10.6-4.83-15.52,0.07
		c-26.48,26.39-52.93,52.81-79.35,79.26c-4.9,4.91-4.93,10.58-0.18,15.49c3.99,4.11,8.05,8.16,12.18,12.14
		c4.88,4.71,10.47,4.89,15.22,0.17c26.68-26.54,53.31-53.13,79.84-79.83C365.31,282.39,366.21,279.51,367.79,276.69z M150.29,162.67
		c6.4-0.35,9.89-2.42,11.66-6.8c1.79-4.45,1.07-8.66-2.32-12.09c-9.03-9.13-18.08-18.24-27.28-27.19c-4.73-4.6-11.4-4.43-15.75,0
		c-4.33,4.41-4.3,10.98,0.38,15.75c8.82,8.99,17.68,17.94,26.77,26.65C145.84,160.98,148.94,161.93,150.29,162.67z M177.64,136.94
		c6.6-0.61,11.69-5.52,11.53-11.72c-0.09-3.34-1.15-5.68-4.91-7.33c-15.42-6.74-26.77-17.78-33.32-33.53
		c-0.6-1.45-2.26-2.95-3.76-3.46c-4.72-1.61-9.72,0.45-12.31,4.6c-2.74,4.39-2.28,9.8,1.6,13.72c11.2,11.34,22.45,22.63,33.89,33.74
		C172.27,134.81,175.19,135.64,177.64,136.94z M136.98,177.54c-0.92-2.12-1.34-4.72-2.84-6.29c-7.4-7.75-14.91-15.42-22.73-22.74
		c-3.99-3.73-10.42-3.04-14.33,0.72c-3.94,3.79-4.93,10.2-1.19,14.24c7.43,8.05,15.24,15.78,23.25,23.26
		c3.25,3.04,7.65,2.88,11.6,0.81C134.59,185.51,136.48,182.14,136.98,177.54z M110.26,203.44c-0.28-0.94-0.29-3.01-1.33-4.16
		c-3.9-4.29-7.75-8.78-12.34-12.23c-4.12-3.09-10.04-1.45-13.42,2.52c-3.25,3.82-3.59,9.87-0.24,13.77
		c2.98,3.48,6.28,6.75,9.81,9.66c3.46,2.85,7.62,2.94,11.58,0.89C108.15,211.91,110.06,208.56,110.26,203.44z M165.35,75.92
		c-0.23,0.57-0.46,1.13-0.68,1.7c3.97,11.71,12.55,19.32,22.13,25.1c6.7-6.69,12.97-12.96,19.45-19.43
		C192.75,80.85,179.05,78.39,165.35,75.92z"/>
	<path class="st0" d="M59.52,9.12c2-2.36,3.31-5.19,5.42-6.03c2.15-0.85,5.26-0.23,7.6,0.65c1.82,0.68,3.14,2.73,4.64,4.22
		c7.59,7.55,15.18,15.09,22.72,22.68c3.84,3.87,4.19,8.32,1.04,11.56c-3.2,3.3-7.84,2.94-11.81-1.01
		c-8.48-8.42-16.98-16.81-25.32-25.36C62.19,14.17,61.24,11.85,59.52,9.12z"/>
	<path class="st0" d="M311.3,2.1c4.46,0.04,6.82,1.53,8.06,4.4c1.36,3.15,0.77,6.13-1.68,8.6c-5.63,5.67-11.28,11.3-16.93,16.95
		c-3.26,3.26-6.48,6.58-9.81,9.77c-3.5,3.35-7.98,3.5-11.03,0.52c-3.07-3-3.09-7.6,0.27-11.01c8.85-8.97,17.76-17.88,26.78-26.68
		C308.37,3.27,310.46,2.58,311.3,2.1z"/>
	<path class="st0" d="M197.83,24.34c0,5.36,0.05,10.72-0.02,16.07c-0.06,4.96-2.93,8.11-7.3,8.21c-4.45,0.1-7.66-3.23-7.69-8.25
		c-0.07-10.72-0.07-21.43,0-32.15c0.03-4.97,3.32-8.35,7.73-8.23c4.31,0.12,7.21,3.35,7.27,8.26
		C197.88,13.62,197.83,18.98,197.83,24.34z"/>
</g>
</svg>
