<?xml version="1.0" encoding="utf-8"?>
<!-- Generator: Adobe Illustrator 24.1.1, SVG Export Plug-In . SVG Version: 6.00 Build 0)  -->
<svg version="1.1" id="Layer_1" xmlns="http://www.w3.org/2000/svg" xmlns:xlink="http://www.w3.org/1999/xlink" x="0px" y="0px"
	 viewBox="0 0 139.83 119.37" style="enable-background:new 0 0 139.83 119.37;" xml:space="preserve">
<style type="text/css">
	.st0{fill:#F71963;}
</style>
<path class="st0" d="M25.66,34.78c-3.22-6.09-6.29-11.76-9.23-17.49C11.26,7.23,15.51,0.04,26.7,0.03c33.63-0.04,67.27-0.04,100.9,0
	c10.88,0.01,15.19,7.29,10.1,16.88C120.87,48.6,104,80.28,87.24,112.02c-2.58,4.88-6.09,8.51-11.74,7
	c-3.13-0.84-6.52-3.37-8.28-6.11c-4.11-6.38-7.31-13.35-11.43-21.11c-3.03,5.6-5.69,10.41-8.25,15.28c-1.59,3.03-3.19,5.91-7.24,5.9
	c-4.06-0.01-5.6-2.97-7.18-5.97c-10.32-19.54-20.68-39.06-31-58.6c-4.51-8.53-1.82-12.97,7.82-13.03c4.66-0.02,9.32-0.04,13.98-0.07
	C24.25,35.31,24.56,35.13,25.66,34.78z M55.66,34.98c-7.15,0-14.3-0.09-21.45,0.03c-5.12,0.09-7.26,3.42-4.9,7.99
	c7.07,13.72,14.26,27.38,21.58,40.97c2.61,4.85,6.91,4.89,9.54,0.05c7.38-13.55,14.62-27.19,21.74-40.88
	c2.57-4.94,0.53-8.07-5.05-8.14C69.96,34.91,62.81,34.98,55.66,34.98z"/>
</svg>
