<?xml version="1.0" encoding="utf-8"?>
<!-- Generator: Adobe Illustrator 24.1.1, SVG Export Plug-In . SVG Version: 6.00 Build 0)  -->
<svg version="1.1" id="Layer_1" xmlns="http://www.w3.org/2000/svg" xmlns:xlink="http://www.w3.org/1999/xlink" x="0px" y="0px"
	 viewBox="0 0 300 299.99" style="enable-background:new 0 0 300 299.99;" xml:space="preserve">
<style type="text/css">
	.st0{fill:#21759B;}
</style>
<g transform="matrix(2.44844 0 0 2.44844 130 50.0049)">
	<path class="st0" d="M-44.39,40.84c0,20.8,12.09,38.78,29.62,47.3l-25.07-68.69C-42.75,25.98-44.39,33.22-44.39,40.84z"/>
	<path class="st0" d="M43.64,38.18c0-6.49-2.33-10.99-4.33-14.49c-2.66-4.33-5.16-7.99-5.16-12.32c0-4.83,3.66-9.33,8.82-9.33
		c0.23,0,0.45,0.03,0.68,0.04c-9.35-8.57-21.81-13.8-35.49-13.8c-18.36,0-34.51,9.42-43.91,23.69c1.23,0.04,2.4,0.06,3.38,0.06
		c5.5,0,14.01-0.67,14.01-0.67c2.83-0.17,3.17,3.99,0.34,4.33c0,0-2.85,0.34-6.01,0.5L-4.9,73.12l11.5-34.49L-1.58,16.2
		c-2.83-0.17-5.51-0.5-5.51-0.5c-2.83-0.17-2.5-4.5,0.33-4.33c0,0,8.68,0.67,13.84,0.67c5.5,0,14.01-0.67,14.01-0.67
		c2.83-0.17,3.17,3.99,0.34,4.33c0,0-2.85,0.34-6.01,0.5L34.4,72.69l5.24-17.52C41.92,47.9,43.64,42.68,43.64,38.18L43.64,38.18z"/>
	<path class="st0" d="M9.09,45.43L-6.68,91.25c4.71,1.38,9.69,2.14,14.85,2.14c6.12,0,11.99-1.06,17.45-2.98
		c-0.14-0.22-0.27-0.46-0.37-0.72L9.09,45.43z"/>
	<path class="st0" d="M54.28,15.62c0.23,1.67,0.35,3.47,0.35,5.4c0,5.33-1,11.33-4,18.82L34.59,86.26
		c15.62-9.11,26.13-26.04,26.13-45.43C60.72,31.7,58.39,23.11,54.28,15.62L54.28,15.62z"/>
	<path class="st0" d="M8.17-20.42c-33.78,0-61.26,27.48-61.26,61.26c0,33.78,27.48,61.26,61.26,61.26
		c33.78,0,61.26-27.48,61.26-61.26C69.43,7.06,41.94-20.42,8.17-20.42z M8.17,99.29c-32.23,0-58.45-26.22-58.45-58.46
		c0-32.23,26.22-58.45,58.45-58.45c32.23,0,58.45,26.22,58.45,58.45C66.62,73.07,40.4,99.29,8.17,99.29z"/>
</g>
</svg>
