<?xml version="1.0" encoding="utf-8"?>
<!-- Generator: Adobe Illustrator 24.1.1, SVG Export Plug-In . SVG Version: 6.00 Build 0)  -->
<svg version="1.1" id="Layer_1" xmlns="http://www.w3.org/2000/svg" xmlns:xlink="http://www.w3.org/1999/xlink" x="0px" y="0px"
	 viewBox="0 0 409.01 309.27" style="enable-background:new 0 0 409.01 309.27;" xml:space="preserve">
<style type="text/css">
	.st0{fill:#FFFFFF;}
</style>
<path class="st0" d="M0,117.98c0.53-8.48,1.11-16.95,1.58-25.44C2.38,78.33,3.65,64.21,7.99,50.5C16.85,22.52,36.18,7.38,65.01,4.72
	c18.53-1.71,37.17-2.35,55.77-3.09c61.31-2.42,122.63-2.12,183.92,0.72c15.53,0.72,31.17,1.22,46.51,3.5
	c26.52,3.95,44.96,22.69,51.24,49.25c4.61,19.46,5.02,39.27,5.69,59.04c1.39,40.97,1.47,81.96-2.58,122.8
	c-1.55,15.67-5.61,30.95-15.44,43.84c-10.26,13.45-24.07,21.59-40.84,23.04c-22.91,1.98-45.9,3.06-68.88,4.03
	c-57.59,2.44-115.19,1.43-172.75-0.94c-17.5-0.72-35.13-1.76-52.37-4.64c-26.88-4.51-42.32-21.93-48.93-47.92
	c-4.4-17.31-4.43-35.03-5.57-52.65c-0.2-3.16-0.53-6.31-0.79-9.47C0,167.49,0,142.74,0,117.98z M213.28,23.34
	c-37.65,0.91-66.25,1.4-94.83,2.36c-17.41,0.58-34.83,1.43-52.18,2.98c-16.72,1.49-28.75,9.73-34.49,26.35
	c-4.1,11.87-5.41,24.07-6.12,36.42c-2.42,42.28-2.61,84.58,0.11,126.84c0.7,10.82,2.48,21.63,4.65,32.26
	c1.42,6.98,4.35,13.59,9.83,18.79c7.14,6.77,15.87,9.68,25.26,10.58c14.02,1.36,28.09,2.54,42.16,3.1
	c64.36,2.57,128.74,3.18,193.11,0.13c15.4-0.73,30.85-1.42,46.15-3.23c14.08-1.66,24.03-9.46,29.29-23.18
	c5-13.03,6.24-26.56,7.03-40.26c2.12-36.29,2.28-72.61,0.68-108.91c-0.72-16.3-0.6-32.76-5.36-48.64
	c-2.5-8.37-5.76-16.16-13.12-21.75c-8.71-6.62-18.76-8.75-29.2-9.18C292.26,26.21,248.26,24.66,213.28,23.34z"/>
<path class="st0" d="M152.48,150.62c0-15.7-0.03-31.4,0.01-47.1c0.04-15.42,12.76-23,26.33-15.6c28.94,15.78,57.8,31.68,86.74,47.45
	c6.36,3.47,10.37,8.42,10.28,15.79c-0.09,7.2-4.16,12.02-10.37,15.35c-28.93,15.5-57.82,31.08-86.76,46.57
	c-13.62,7.29-26.19-0.29-26.22-15.75C152.45,181.75,152.48,166.18,152.48,150.62z M243.92,150.85
	c-22.72-12.44-44.8-24.52-67.22-36.79c0,24.49,0,48.43,0,72.92C199.11,174.94,221.08,163.13,243.92,150.85z"/>
</svg>
